<?xml version="1.0" encoding="UTF-8"?>
<svg xmlns="http://www.w3.org/2000/svg" xmlns:xlink="http://www.w3.org/1999/xlink" viewBox="0 0 24 24" width="24px" height="24px">
<g id="surface7235330">
<path style=" stroke:none;fill-rule:nonzero;fill:rgb(44.705883%,23.137255%,100%);fill-opacity:1;" d="M 15 4.972656 C 13.894531 4.972656 13 5.867188 13 6.972656 L 13 10.972656 C 13 12.078125 13.894531 12.972656 15 12.972656 L 18.011719 12.972656 L 14.710938 17.402344 C 14.222656 18.0625 14.691406 19 15.515625 19 C 15.828125 19 16.125 18.851562 16.316406 18.597656 L 20.605469 12.832031 C 20.863281 12.488281 21 12.070312 21 11.640625 L 21 6.972656 C 21 5.867188 20.105469 4.972656 19 4.972656 Z M 5 5 C 3.894531 5 3 5.894531 3 7 L 3 11 C 3 12.105469 3.894531 13 5 13 L 8.007812 13 L 4.730469 17.402344 C 4.242188 18.0625 4.710938 19 5.53125 19 C 5.847656 19 6.148438 18.851562 6.335938 18.597656 L 10.605469 12.859375 C 10.863281 12.515625 11 12.097656 11 11.667969 L 11 7 C 11 5.894531 10.105469 5 9 5 Z M 5 5 "/>
</g>
</svg>
